<svg width="700" height="250" xmlns="http://www.w3.org/2000/svg">
  <defs>
    <marker id="arrowhead" markerWidth="10" markerHeight="10" refX="9" refY="3" orient="auto">
      <polygon points="0 0, 10 3, 0 6" fill="#64748b"/>
    </marker>
  </defs>
  
  <!-- Inputs -->
  <g id="inputs">
    <text x="50" y="30" font-family="Arial, sans-serif" font-size="14" font-weight="bold" fill="#334155">Inputs</text>
    <rect x="20" y="50" width="120" height="30" fill="#cbd5e1" stroke="#64748b" rx="4"/>
    <text x="80" y="70" font-family="Arial, sans-serif" font-size="11" fill="#1e293b" text-anchor="middle">Configuration</text>
    <text x="80" y="85" font-family="Arial, sans-serif" font-size="9" fill="#64748b" text-anchor="middle">(optional)</text>
  </g>
  
  <!-- Notebook -->
  <g id="notebook">
    <rect x="250" y="80" width="200" height="50" fill="#3b82f6" stroke="#1e40af" rx="4"/>
    <text x="350" y="105" font-family="Arial, sans-serif" font-size="14" font-weight="bold" fill="#ffffff" text-anchor="middle">Agentic AI Master</text>
    <text x="350" y="120" font-family="Arial, sans-serif" font-size="14" font-weight="bold" fill="#ffffff" text-anchor="middle">Notebook</text>
  </g>
  
  <!-- Outputs -->
  <g id="outputs">
    <text x="550" y="30" font-family="Arial, sans-serif" font-size="14" font-weight="bold" fill="#334155">Outputs</text>
    <rect x="520" y="50" width="150" height="25" fill="#cbd5e1" stroke="#64748b" rx="4"/>
    <text x="595" y="67" font-family="Arial, sans-serif" font-size="10" fill="#1e293b" text-anchor="middle">project_structure.json</text>
    <rect x="520" y="80" width="150" height="25" fill="#cbd5e1" stroke="#64748b" rx="4"/>
    <text x="595" y="97" font-family="Arial, sans-serif" font-size="10" fill="#1e293b" text-anchor="middle">agent_configs.json</text>
    <rect x="520" y="110" width="150" height="25" fill="#cbd5e1" stroke="#64748b" rx="4"/>
    <text x="595" y="127" font-family="Arial, sans-serif" font-size="10" fill="#1e293b" text-anchor="middle">execution_summary.md</text>
    <rect x="520" y="140" width="150" height="25" fill="#cbd5e1" stroke="#64748b" rx="4"/>
    <text x="595" y="157" font-family="Arial, sans-serif" font-size="10" fill="#1e293b" text-anchor="middle">project_directory/</text>
  </g>
  
  <!-- Arrows -->
  <line x1="140" y1="95" x2="250" y2="105" stroke="#64748b" stroke-width="2" marker-end="url(#arrowhead)"/>
  <line x1="450" y1="105" x2="520" y2="95" stroke="#64748b" stroke-width="2" marker-end="url(#arrowhead)"/>
  <line x1="450" y1="105" x2="520" y2="110" stroke="#64748b" stroke-width="2" marker-end="url(#arrowhead)"/>
  <line x1="450" y1="105" x2="520" y2="125" stroke="#64748b" stroke-width="2" marker-end="url(#arrowhead)"/>
  <line x1="450" y1="105" x2="520" y2="152" stroke="#64748b" stroke-width="2" marker-end="url(#arrowhead)"/>
</svg>
